<svg id="Capa_1" enable-background="new 0 0 512.025 512.025" height="512" viewBox="0 0 512.025 512.025" width="512" xmlns="http://www.w3.org/2000/svg"><g><path d="m503.042 197.675c-4.016-12.361-15.534-20.729-28.531-20.729h-145.122l-44.845-138.018c-4.016-12.361-15.534-20.729-28.531-20.729l-60 233.742 60 150.833 117.406 85.3c5.258 3.82 11.445 5.729 17.634 5.729s12.376-1.91 17.634-5.729c10.515-7.639 14.914-21.18 10.897-33.54l-44.844-138.018 117.406-85.301c10.513-7.639 14.912-21.179 10.896-33.54z" fill="#405acc"/><path d="m227.482 38.928-44.845 138.018h-145.123c-12.997 0-24.516 8.369-28.531 20.729-4.016 12.36.383 25.901 10.897 33.541l117.406 85.301-44.845 138.017c-4.017 12.361.383 25.901 10.897 33.54 5.258 3.82 11.445 5.729 17.634 5.729s12.376-1.91 17.634-5.729l117.406-85.3v-384.575c-12.996 0-24.515 8.369-28.53 20.729z" fill="#4271db"/><path d="m339.472 305.055 135.041-98.114h-166.919l-51.581-158.749-50 229.745 50 87.754 135.04 98.113-71.581-158.749z" fill="#db2116"/><path d="m204.431 206.941h-166.918l135.04 78.114v20l-51.581 158.749 135.04-153.736.001-58.127z" fill="#ff3a2f"/><path d="m256.013 277.937 218.5-70.996h-166.919z" fill="#ebebeb"/><path d="m256.013 277.937-218.5-70.996 135.04 98.114z" fill="#fff"/><path d="m256.013 48.192-51.582 158.749 51.582 70.996z" fill="#fff"/><path d="m256.013 277.937 135.04 185.867-51.581-158.749z" fill="#ebebeb"/><path d="m256.012 277.937-135.04 185.867 135.041-98.113z" fill="#fff"/><path d="m256.013 310.068-49.446 35.924 18.886-58.126-49.445-35.925h61.118l18.887-58.126 18.886 58.126h61.118l-49.445 35.925 18.886 58.126z" fill="#4271db"/><path d="m510.175 195.358c-5.035-15.499-19.367-25.912-35.664-25.912h-139.672l-43.162-132.836c-5.035-15.498-19.367-25.911-35.664-25.911s-30.629 10.413-35.664 25.911l-43.162 132.836h-139.673c-16.297 0-30.629 10.413-35.664 25.912-5.036 15.498.438 32.347 13.622 41.926l112.997 82.097-43.16 132.836c-5.035 15.498.439 32.347 13.623 41.926 13.185 9.579 30.9 9.577 44.083 0l112.997-82.097 112.997 82.097c13.183 9.577 30.898 9.58 44.083 0 13.184-9.579 18.658-26.428 13.623-41.926l-43.16-132.836 112.997-82.097c13.185-9.58 18.659-26.428 13.623-41.926zm-22.439 29.791-117.405 85.3c-2.629 1.91-3.729 5.295-2.725 8.385l44.844 138.018c3.021 9.299-.264 19.408-8.174 25.156-7.911 5.747-18.539 5.746-26.45 0l-117.405-85.299c-1.314-.955-2.861-1.433-4.408-1.433s-3.094.478-4.408 1.433l-117.405 85.299c-7.911 5.747-18.539 5.748-26.45 0-7.91-5.748-11.194-15.857-8.174-25.156l44.844-138.018c1.004-3.09-.096-6.475-2.725-8.385l-117.405-85.3c-7.91-5.748-11.194-15.856-8.173-25.156s11.62-15.547 21.398-15.547h145.121c3.249 0 6.129-2.092 7.133-5.182l44.846-138.019c3.021-9.299 11.62-15.546 21.398-15.546s18.377 6.248 21.398 15.546l44.846 138.019c1.004 3.09 3.884 5.182 7.133 5.182h145.121c9.778 0 18.377 6.248 21.398 15.547s-.263 19.408-8.173 25.156z"/><path d="m474.513 199.441h-161.47l-49.898-153.567c-1.004-3.09-3.884-5.182-7.133-5.182s-6.129 2.092-7.133 5.182l-49.897 153.567h-161.469c-3.249 0-6.129 2.092-7.133 5.182s.096 6.476 2.725 8.385l67.52 49.057c3.35 2.435 8.042 1.693 10.476-1.659 2.435-3.351 1.692-8.041-1.659-10.476l-29.211-21.223 92.331 30 36.576 26.574-35.267 11.459-40.157-29.177c-3.35-2.434-8.041-1.692-10.476 1.659s-1.692 8.041 1.659 10.476l38.841 28.22-49.897 153.567c-1.004 3.09.096 6.476 2.725 8.386 2.629 1.909 6.188 1.909 8.816 0l130.633-94.91 130.633 94.91c1.314.955 2.861 1.432 4.408 1.432s3.094-.478 4.408-1.432c2.629-1.91 3.729-5.295 2.725-8.386l-49.897-153.567 130.632-94.91c2.629-1.91 3.729-5.295 2.725-8.386-1.008-3.089-3.887-5.181-7.136-5.181zm-47.351 15-92.332 30h-45.212l21.797-30zm-163.649-118.896 35.768 110.08-21.796 30-13.971-42.998v-97.082zm-15 0v97.082l-13.971 42.998-21.796-30zm-163.65 118.896h115.747l21.797 30h-45.212zm93.642 96.565 35.267-11.459-13.971 42.998-57.065 78.542zm70.008 50.864-93.64 68.033 57.063-78.54 36.577-26.575zm7.5-59.302c-1.547 0-3.094.478-4.408 1.432l-30.771 22.357 11.753-36.173c1.004-3.09-.096-6.475-2.725-8.385l-30.771-22.357h38.036c3.249 0 6.129-2.092 7.133-5.182l11.754-36.174 11.754 36.174c1.004 3.09 3.884 5.182 7.133 5.182h38.036l-30.771 22.357c-2.629 1.91-3.729 5.295-2.725 8.385l11.753 36.173-30.773-22.357c-1.315-.954-2.862-1.432-4.408-1.432zm7.5 59.302v-37.082l36.577 26.575 57.063 78.54zm105.775 59.218-57.065-78.542-13.971-42.998 35.267 11.459zm-31.133-124.347-35.267-11.459 36.576-26.574 92.331-30z"/></g></svg>