<svg id="Capa_1" enable-background="new 0 0 512 512" height="512" viewBox="0 0 512 512" width="512" xmlns="http://www.w3.org/2000/svg"><g><g><path d="m256 162c-8.284 0-15-6.716-15-15v-72c0-41.355 33.645-75 75-75h181c8.284 0 15 6.716 15 15s-6.716 15-15 15h-181c-24.813 0-45 20.187-45 45v72c0 8.284-6.716 15-15 15z" fill="#45f6ff"/><g><path d="m497 0h-181c-24.508 0-46.305 11.818-60 30.052v131.948c8.284 0 15-6.716 15-15v-72c0-24.813 20.187-45 45-45h181c8.284 0 15-6.716 15-15s-6.716-15-15-15z" fill="#2ebeef"/></g><path d="m437.789 512c-30.577 0-58.443-19.195-69.339-47.765l-23.361-61.253-59.251-36.311h-59.676l-59.25 36.311-23.361 61.253c-10.897 28.57-38.762 47.765-69.34 47.765-40.92 0-74.211-33.282-74.211-74.19v-197.432c0-33.883 12.172-66.602 34.273-92.131 22.486-25.974 53.306-42.147 86.781-45.54 35.963-3.639 70.759 6.737 98.618 29.293h72.657c27.859-22.556 62.65-32.938 98.618-29.291 33.474 3.392 64.293 19.569 86.782 45.553 22.1 25.536 34.272 58.259 34.272 92.143v197.384c-.001 40.92-33.292 74.211-74.212 74.211z" fill="#524798"/><g><path d="m477.728 148.262c-22.488-25.984-53.308-42.162-86.782-45.553-35.968-3.647-70.759 6.735-98.618 29.291h-36.328v234.671h29.838l59.251 36.311 23.361 61.253c10.896 28.57 38.761 47.765 69.339 47.765 40.92 0 74.211-33.291 74.211-74.211v-197.385c0-33.883-12.171-66.607-34.272-92.142z" fill="#38336b"/></g><g><path d="m256 292c-8.284 0-15-6.716-15-15v-60c0-8.284 6.716-15 15-15s15 6.716 15 15v60c0 8.284-6.716 15-15 15z" fill="#38336b"/><g fill="#2ebeef"><g><path d="m451.5 252h-20c-8.284 0-15-6.716-15-15s6.716-15 15-15h20c8.284 0 15 6.716 15 15s-6.716 15-15 15z"/><path d="m351.5 252h-20c-8.284 0-15-6.716-15-15s6.716-15 15-15h20c8.284 0 15 6.716 15 15s-6.716 15-15 15z"/></g><g><path d="m391.5 212c-8.284 0-15-6.716-15-15v-20c0-8.284 6.716-15 15-15s15 6.716 15 15v20c0 8.284-6.716 15-15 15z"/><path d="m391.5 312c-8.284 0-15-6.716-15-15v-20c0-8.284 6.716-15 15-15s15 6.716 15 15v20c0 8.284-6.716 15-15 15z"/></g></g><g fill="#f9f9f9"><g><path d="m80.5 252h-20c-8.284 0-15-6.716-15-15s6.716-15 15-15h20c8.284 0 15 6.716 15 15s-6.716 15-15 15z"/><path d="m180.5 252h-20c-8.284 0-15-6.716-15-15s6.716-15 15-15h20c8.284 0 15 6.716 15 15s-6.716 15-15 15z"/></g><g><path d="m120.5 212c-8.284 0-15-6.716-15-15v-20c0-8.284 6.716-15 15-15s15 6.716 15 15v20c0 8.284-6.716 15-15 15z"/><path d="m120.5 312c-8.284 0-15-6.716-15-15v-20c0-8.284 6.716-15 15-15s15 6.716 15 15v20c0 8.284-6.716 15-15 15z"/></g></g><path d="m324.773 414.5c-25.667 0-45.773-20.864-45.773-47.5 0-26.192 21.308-47.5 47.5-47.5s47.5 21.308 47.5 47.5c0 25.748-22.544 47.5-49.227 47.5z" fill="#e4e4ff"/></g><g><g><g><path d="m256 202v90c8.284 0 15-6.716 15-15v-60c0-8.284-6.716-15-15-15z" fill="#2e2654"/></g></g></g></g><path d="m138 367c0-26.192 21.308-47.5 47.5-47.5s47.5 21.308 47.5 47.5c0 26.636-20.106 47.5-45.773 47.5-26.683 0-49.227-21.752-49.227-47.5z" fill="#f9f9f9"/></g></svg>